# OBJ written from C:\Users\Petter\Desktop\INCODE\3D production\01_ButtonPanel_inside_cradle\05_unity\ConsoleInsideCradle_LO_01.obj
# Units	meters

o Mesh
v -0.27175 2.768 1.41009
v -0.274 2.77025 1.41009
v -0.274 2.83575 1.41009
v -0.27175 2.838 1.41009
v -0.20625 2.838 1.41009
v -0.204 2.83575 1.41009
v -0.204 2.77025 1.41009
v -0.20625 2.768 1.41009
v -0.27175 2.768 1.45559
v -0.27175 2.77025 1.45784
v -0.274 2.77025 1.45559
v -0.27175 2.83575 1.45784
v -0.27175 2.838 1.45559
v -0.274 2.83575 1.45559
v -0.20625 2.83575 1.45784
v -0.204 2.83575 1.45559
v -0.20625 2.838 1.45559
v -0.20625 2.77025 1.45784
v -0.20625 2.768 1.45559
v -0.204 2.77025 1.45559
vn -0.707102 -0.707111 0
vn -0.33539 -0.810376 0.480421
vn -0.810371 -0.335393 0.480427
vn -0.335389 0.810376 0.480421
vn -0.707102 0.707111 0
vn -0.810371 0.335393 0.480427
vn 0.810369 0.335395 0.480429
vn 0.7071 0.707114 0
vn 0.335389 0.810377 0.48042
vn -0.409791 -0.409791 0.814949
vn -0.409792 0.409791 0.814949
vn 0.335389 -0.810377 0.48042
vn 0.7071 -0.707114 0
vn 0.810369 -0.335395 0.480429
vn 0.409791 -0.40979 0.81495
vn 0.409791 0.40979 0.81495
vn -1 0 0
vn 0 1 0
vn 1 0 0
vn 0 -1 0
vn 0 0 1
vt 0.592119 0.119657
vt 0.711698 0.119077
vt 0.711683 0.127562
vt 0.592104 0.128142
vt 0.711363 0.310717
vt 0.591799 0.311317
vt 0.591799 0.302812
vt 0.711378 0.302232
vt 0.711351 0.493633
vt 0.5918 0.494428
vt 0.5918 0.485945
vt 0.711352 0.48515
vt 0.890893 0.309859
vt 0.719647 0.310893
vt 0.719445 0.302499
vt 0.891105 0.301464
vt 0.71135 0.676742
vt 0.5918 0.677537
vt 0.5918 0.669054
vt 0.71135 0.668259
vt 0.890901 0.483619
vt 0.899166 0.309594
vt 0.899173 0.483774
vt 0.719644 0.484877
vt 0.891114 0.492012
vt 0.719451 0.493287
vt 0.711349 0.851368
vt 0.591799 0.852163
usemtl Default
g Default
f 1/1/1 9/2/2 11/3/3 2/4/1
f 13/5/4 4/6/5 3/7/5 14/8/6
f 16/9/7 6/10/8 5/11/8 17/12/9
f 10/13/10 12/14/11 14/15/6 11/16/3
f 19/17/12 8/18/13 7/19/13 20/20/14
f 18/21/15 10/13/10 9/22/2 19/23/12
f 12/14/11 15/24/16 17/12/9 13/5/4
f 15/24/16 18/21/15 20/25/14 16/26/7
f 9/22/2 10/13/10 11/16/3
f 12/14/11 13/5/4 14/15/6
f 15/24/16 16/26/7 17/12/9
f 18/21/15 19/23/12 20/25/14
f 14/8/17 3/7/17 2/4/17 11/3/17
f 17/12/18 5/11/18 4/6/18 13/5/18
f 20/20/19 7/19/19 6/10/19 16/9/19
f 9/27/20 1/28/20 8/18/20 19/17/20
f 18/21/21 15/24/21 12/14/21 10/13/21
