# OBJ written from C:\Users\Petter\Desktop\INCODE\3D production\00_SpoolCradleandEngine\Cradle\Bake\Rail_LO_02.obj
# Units	meters

o Rail_LO
v -0.14894 -0.007 0.04
v -0.14894 -4.32134e-010 0.04
v 0.15024 -4.32134e-010 0.04
v 0.15024 -0.007 0.04
v -0.14894 -0.007 6
v -0.14894 -4.32134e-010 6
v 0.15024 -4.32134e-010 6
v 0.15024 -0.007 6
v -0.0130824 -0.022 0.04
v -0.0165841 -0.029 0.04
v 0.0143824 -0.022 0.04
v 0.0178842 -0.029 0.04
v -0.0130824 -0.022 6
v 0.0143824 -0.022 6
v -0.0165841 -0.029 6
v 0.0178842 -0.029 6
v -0.0224002 -0.007 0.04
v -0.0177167 -4.32134e-010 0.04
v -0.128454 -0.007 0.04
v -0.123471 -4.32134e-010 0.04
v 0.129754 -0.007 0.04
v 0.124771 -4.32134e-010 0.04
v 0.0237002 -0.007 0.04
v 0.0190167 -4.32134e-010 0.04
v -0.0177167 -4.32134e-010 6
v -0.123471 -4.32134e-010 6
v 0.124771 -4.32134e-010 6
v 0.0190167 -4.32134e-010 6
v -0.0224002 -0.007 6
v -0.128454 -0.007 6
v 0.129754 -0.007 6
v 0.0237002 -0.007 6
v -0.075427 -0.007 0.04
v -0.0780685 -4.32134e-010 0.04
v 0.0767271 -0.007 0.04
v 0.0793685 -4.32134e-010 0.04
v -0.0780685 -4.32134e-010 6
v 0.0793685 -4.32134e-010 6
v -0.075427 -0.007 6
v 0.0767271 -0.007 6
v -0.0793361 -0.019 0.04
v -0.0824979 -0.012 0.04
v -0.119439 -0.019 0.04
v -0.114254 -0.012 0.04
v 0.120739 -0.019 0.04
v 0.115554 -0.012 0.04
v 0.0806361 -0.019 0.04
v 0.083798 -0.012 0.04
v -0.0824979 -0.012 6
v -0.114254 -0.012 6
v 0.115554 -0.012 6
v 0.083798 -0.012 6
v -0.0793361 -0.019 6
v -0.119439 -0.019 6
v 0.120739 -0.019 6
v 0.0806361 -0.019 6
vn -1 0 0
vn 1 0 0
vn 0 0 -1
vn 0 1 0
vn 0 -1 0
vn 0 0 1
vn 0.978526 0.206125 0
vn -0.978526 0.206125 0
vn -0.966786 -0.255588 0
vn 0.966787 -0.255583 0
vn -0.93813 0.346284 0
vn 0.793059 0.609145 0
vn -0.793059 0.609145 0
vn 0.93813 0.346284 0
vn 0.950823 -0.309735 0
vn -0.799534 -0.60062 0
vn 0.799536 -0.600618 0
vn -0.950824 -0.30973 0
vt 0.514969 0.986321
vt 0.514475 0.986322
vt 0.514475 0.0289871
vt 0.51497 0.0289856
vt 0.541078 0.986247
vt 0.540584 0.986249
vt 0.540584 0.028915
vt 0.541078 0.0289136
vt 0.706439 0.290267
vt 0.722081 0.290268
vt 0.72409 0.293923
vt 0.704458 0.293922
vt 0.584905 0.98106
vt 0.580494 0.981055
vt 0.580494 0.0237105
vt 0.584905 0.0237156
vt 0.526559 0.0289536
vt 0.528995 0.0289468
vt 0.528994 0.98628
vt 0.526558 0.986288
vt 0.725525 0.251253
vt 0.705881 0.251247
vt 0.707893 0.247591
vt 0.723545 0.247595
vt 0.701102 0.282431
vt 0.703758 0.278776
vt 0.640653 0.282371
vt 0.628969 0.282355
vt 0.62896 0.278695
vt 0.643485 0.278715
vt 0.799391 0.282348
vt 0.787728 0.282369
vt 0.784868 0.27872
vt 0.799369 0.278695
vt 0.727352 0.282436
vt 0.724668 0.278783
vt 0.588516 0.0237198
vt 0.588516 0.981064
vt 0.607793 0.0237426
vt 0.611883 0.0237475
vt 0.611883 0.981092
vt 0.607793 0.981087
vt 0.553516 0.0236781
vt 0.557606 0.0236829
vt 0.557606 0.981027
vt 0.553516 0.981022
vt 0.576883 0.023706
vt 0.576883 0.98105
vt 0.52495 0.986292
vt 0.524951 0.028958
vt 0.516417 0.986316
vt 0.516417 0.0289817
vt 0.539136 0.986252
vt 0.539136 0.0289189
vt 0.530602 0.986276
vt 0.530603 0.0289423
vt 0.726235 0.2361
vt 0.72889 0.239758
vt 0.786519 0.236087
vt 0.80104 0.236077
vt 0.801028 0.239736
vt 0.789348 0.239744
vt 0.630616 0.236077
vt 0.645099 0.236082
vt 0.642249 0.23973
vt 0.6306 0.239726
vt 0.705305 0.236099
vt 0.70262 0.239754
vt 0.670886 0.28241
vt 0.669369 0.278753
vt 0.757542 0.282416
vt 0.759028 0.278761
vt 0.598208 0.0237313
vt 0.598208 0.981076
vt 0.567191 0.0236945
vt 0.567191 0.981039
vt 0.521203 0.986303
vt 0.521204 0.0289684
vt 0.53435 0.986265
vt 0.53435 0.0289321
vt 0.760638 0.2361
vt 0.759117 0.239758
vt 0.670925 0.236083
vt 0.672413 0.239739
vt 0.668675 0.28868
vt 0.666863 0.285019
vt 0.645809 0.288651
vt 0.648757 0.284995
vt 0.782633 0.288641
vt 0.779659 0.284992
vt 0.759803 0.288677
vt 0.761582 0.285021
vt 0.600263 0.0237338
vt 0.600263 0.981079
vt 0.605362 0.0237397
vt 0.605363 0.981085
vt 0.560037 0.023686
vt 0.560037 0.98103
vt 0.565136 0.023692
vt 0.565136 0.981037
vt 0.520311 0.986305
vt 0.520312 0.0289709
vt 0.517478 0.986314
vt 0.517478 0.0289789
vt 0.538075 0.986255
vt 0.538075 0.0289219
vt 0.535241 0.986263
vt 0.535241 0.0289296
vt 0.763138 0.24237
vt 0.761323 0.24603
vt 0.781243 0.242362
vt 0.784186 0.246019
vt 0.650313 0.24234
vt 0.647346 0.245988
vt 0.668376 0.242346
vt 0.670158 0.245998
usemtl Default
g Default
f 5/1/1 6/2/1 2/3/1 1/4/1
f 7/5/2 8/6/2 4/7/2 3/8/2
f 9/9/3 11/10/3 12/11/3 10/12/3
f 13/13/4 14/14/4 11/15/4 9/16/4
f 10/17/5 12/18/5 16/19/5 15/20/5
f 15/21/6 16/22/6 14/23/6 13/24/6
f 10/12/3 17/25/3 18/26/3 9/9/3
f 19/27/3 1/28/3 2/29/3 20/30/3
f 4/31/3 21/32/3 22/33/3 3/34/3
f 23/35/3 12/11/3 11/10/3 24/36/3
f 9/16/7 18/37/7 25/38/7 13/13/7
f 20/39/4 2/40/4 6/41/4 26/42/4
f 3/43/4 22/44/4 27/45/4 7/46/4
f 24/47/8 11/15/8 14/14/8 28/48/8
f 15/20/9 29/49/9 17/50/9 10/17/9
f 30/51/5 5/1/5 1/4/5 19/52/5
f 8/6/5 31/53/5 21/54/5 4/7/5
f 32/55/10 16/19/10 12/18/10 23/56/10
f 13/24/6 25/57/6 29/58/6 15/21/6
f 26/59/6 6/60/6 5/61/6 30/62/6
f 7/63/6 27/64/6 31/65/6 8/66/6
f 28/67/6 14/23/6 16/22/6 32/68/6
f 17/25/3 33/69/3 34/70/3 18/26/3
f 35/71/3 23/35/3 24/36/3 36/72/3
f 18/37/4 34/73/4 37/74/4 25/38/4
f 36/75/4 24/47/4 28/48/4 38/76/4
f 29/49/5 39/77/5 33/78/5 17/50/5
f 40/79/5 32/55/5 23/56/5 35/80/5
f 25/57/6 37/81/6 39/82/6 29/58/6
f 38/83/6 28/67/6 32/68/6 40/84/6
f 33/69/3 41/85/3 42/86/3 34/70/3
f 41/85/3 43/87/3 44/88/3 42/86/3
f 43/87/3 19/27/3 20/30/3 44/88/3
f 21/32/3 45/89/3 46/90/3 22/33/3
f 45/89/3 47/91/3 48/92/3 46/90/3
f 47/91/3 35/71/3 36/72/3 48/92/3
f 34/73/11 42/93/11 49/94/11 37/74/11
f 42/93/4 44/95/4 50/96/4 49/94/4
f 44/95/12 20/39/12 26/42/12 50/96/12
f 22/44/13 46/97/13 51/98/13 27/45/13
f 46/97/4 48/99/4 52/100/4 51/98/4
f 48/99/14 36/75/14 38/76/14 52/100/14
f 39/77/15 53/101/15 41/102/15 33/78/15
f 53/101/5 54/103/5 43/104/5 41/102/5
f 54/103/16 30/51/16 19/52/16 43/104/16
f 31/53/17 55/105/17 45/106/17 21/54/17
f 55/105/5 56/107/5 47/108/5 45/106/5
f 56/107/18 40/79/18 35/80/18 47/108/18
f 37/81/6 49/109/6 53/110/6 39/82/6
f 49/109/6 50/111/6 54/112/6 53/110/6
f 50/111/6 26/59/6 30/62/6 54/112/6
f 27/64/6 51/113/6 55/114/6 31/65/6
f 51/113/6 52/115/6 56/116/6 55/114/6
f 52/115/6 38/83/6 40/84/6 56/116/6
