# OBJ written from C:\Users\Petter\Desktop\INCODE\3D production\KontrollPanelUI\POS3_Panel_ArmAndUpperPanel\02_xNomal\ArmPanel_01.obj
# Units	meters

o LO_ArmPanel_01
v -0.1625 -0.0015 0.0649999
v -0.1625 -0.0015 -0.0649999
v 0.1625 -0.0015 -0.0649999
v 0.1625 -0.0015 0.0649999
v -0.15925 0.0215 0.061425
v 0.15925 0.0215 0.061425
v 0.15925 0.0215 -0.061425
v -0.15925 0.0215 -0.061425
v -0.156065 0.0200001 0.0589679
v 0.156065 0.0200001 0.0589679
v 0.156065 0.0200001 -0.0589679
v -0.156065 0.0200001 -0.0589679
v -0.1625 0.0203687 0.0649999
v -0.161739 0.0215 0.0641627
v -0.161739 0.0215 -0.0641627
v -0.1625 0.0203687 -0.0649999
v 0.161739 0.0215 -0.0641627
v 0.1625 0.0203687 -0.0649999
v 0.161739 0.0215 0.0641627
v 0.1625 0.0203687 0.0649999
vn 0 -1 0
vn 0.215087 0.932425 0.290383
vn 0.0657004 0.995948 0.0614165
vn 0.0657003 0.995948 -0.0614166
vn 0.215087 0.932425 -0.290383
vn -0.0657004 0.995948 -0.0614165
vn -0.215087 0.932425 -0.290383
vn -0.0657003 0.995948 0.0614166
vn -0.215087 0.932425 0.290383
vn 0 1 0
vn 0 0.594865 -0.803826
vn 0 0.594865 -0.803826
vn 0 0.594865 0.803826
vn 0 0.594865 0.803826
vn -0.829729 0.558166 0
vn -0.82973 0.558166 0
vn 0.829729 0.558166 0
vn 0.82973 0.558166 0
vn -1 0 0
vn 0 0 -1
vn 1 0 0
vn 0 0 1
vt 0.235262 0.875293
vt 0.288184 0.875475
vt 0.288184 0.987707
vt 0.235262 0.987525
vt 0.725799 0.318009
vt 0.719942 0.311109
vt 0.980059 0.310291
vt 0.974202 0.317227
vt 0.980058 0.984884
vt 0.974201 0.977985
vt 0.719942 0.985709
vt 0.725798 0.978773
vt 0.714163 0.305849
vt 0.714163 0.991006
vt 0.71154 0.993006
vt 0.71154 0.303865
vt 0.985837 0.990145
vt 0.985837 0.304994
vt 0.98846 0.302994
vt 0.988459 0.992128
vt 0.551337 0.69528
vt 0.594772 0.69528
vt 0.594772 0.993204
vt 0.551337 0.993204
vt 0.699564 0.98889
vt 0.660227 0.98889
vt 0.660227 0.297993
vt 0.699564 0.297993
vt 0.596663 0.68872
vt 0.553228 0.68872
vt 0.553228 0.390796
vt 0.596663 0.390796
vt 0.651364 0.989546
vt 0.608436 0.990007
vt 0.608436 0.299341
vt 0.651364 0.29888
mtllib ArmPanel_01.mtl
usemtl Default
g Default
f 1/1/1 2/2/1 3/3/1 4/4/1
f 12/5/2 8/6/3 5/7/4 9/8/5
f 9/8/5 5/7/4 6/9/6 10/10/7
f 10/10/7 6/9/6 7/11/8 11/12/9
f 11/12/9 7/11/8 8/6/3 12/5/2
f 9/8/10 10/10/10 11/12/10 12/5/10
f 15/13/11 17/14/11 18/15/12 16/16/12
f 19/17/13 14/18/13 13/19/14 20/20/14
f 14/18/15 15/13/15 16/16/16 13/19/16
f 17/14/17 19/17/17 20/20/18 18/15/18
f 16/21/19 2/22/19 1/23/19 13/24/19
f 18/25/20 3/26/20 2/27/20 16/28/20
f 20/29/21 4/30/21 3/31/21 18/32/21
f 13/33/22 1/34/22 4/35/22 20/36/22
f 15/13/10 14/18/10 5/7/4 8/6/3
f 14/18/10 19/17/10 6/9/6 5/7/4
f 19/17/10 17/14/10 7/11/8 6/9/6
f 17/14/10 15/13/10 8/6/3 7/11/8
