# OBJ written from C:\Users\Petter\Desktop\INCODE\3D production\00_ButtonPanel_inside_cradle\ConsoleInsideCradle_LO.obj
# Units	meters

o Lo
v -0.229887 2.30684 1.41009
v -0.232395 2.3088 1.41009
v -0.245252 2.41351 1.41009
v -0.243293 2.41602 1.41009
v -0.178281 2.424 1.41009
v -0.175774 2.42205 1.41009
v -0.162916 2.31733 1.41009
v -0.164875 2.31482 1.41009
v -0.229887 2.30684 1.45559
v -0.230161 2.30907 1.45784
v -0.232395 2.3088 1.45559
v -0.243019 2.41379 1.45784
v -0.243293 2.41602 1.45559
v -0.245252 2.41351 1.45559
v -0.178007 2.42177 1.45784
v -0.175774 2.42205 1.45559
v -0.178281 2.424 1.45559
v -0.16515 2.31706 1.45784
v -0.164875 2.31482 1.45559
v -0.162916 2.31733 1.45559
v -0.27175 2.768 1.41009
v -0.274 2.77025 1.41009
v -0.274 2.83575 1.41009
v -0.27175 2.838 1.41009
v -0.20625 2.838 1.41009
v -0.204 2.83575 1.41009
v -0.204 2.77025 1.41009
v -0.20625 2.768 1.41009
v -0.27175 2.768 1.45559
v -0.27175 2.77025 1.45784
v -0.274 2.77025 1.45559
v -0.27175 2.83575 1.45784
v -0.27175 2.838 1.45559
v -0.274 2.83575 1.45559
v -0.20625 2.83575 1.45784
v -0.204 2.83575 1.45559
v -0.20625 2.838 1.45559
v -0.20625 2.77025 1.45784
v -0.20625 2.768 1.45559
v -0.204 2.77025 1.45559
vn -0.615676 -0.787999 0
vn -0.234145 -0.84521 0.480412
vn -0.759329 -0.337281 0.556472
vn -0.431631 0.763473 0.48042
vn -0.787986 0.615694 0
vn -0.81836 0.14357 0.556484
vn 0.759327 0.337282 0.556474
vn 0.615674 0.788001 0
vn 0.234144 0.845211 0.480412
vn -0.458175 -0.370295 0.808058
vn -0.53415 0.24845 0.808057
vn 0.43163 -0.763474 0.480419
vn 0.787984 -0.615696 0
vn 0.818358 -0.143571 0.556486
vn 0.534149 -0.248449 0.808058
vn 0.458174 0.370295 0.808059
vn -0.992546 -0.121871 0
vn -0.992546 -0.121871 0
vn -0.121874 0.992546 0
vn -0.121874 0.992546 0
vn -0.121874 0.992546 0
vn 0.992546 0.121871 0
vn 0.992546 0.121871 0
vn 0.121874 -0.992546 0
vn 0.121874 -0.992546 0
vn 0.121874 -0.992546 0
vn 0 0 1
vn -0.707102 -0.707111 0
vn -0.33539 -0.810376 0.480421
vn -0.810371 -0.335393 0.480427
vn -0.335389 0.810376 0.480421
vn -0.707102 0.707111 0
vn -0.810371 0.335393 0.480427
vn 0.810369 0.335395 0.480429
vn 0.7071 0.707114 0
vn 0.335389 0.810377 0.48042
vn -0.409791 -0.409791 0.814949
vn -0.409792 0.409791 0.814949
vn 0.335389 -0.810377 0.48042
vn 0.7071 -0.707114 0
vn 0.810369 -0.335395 0.480429
vn 0.409791 -0.40979 0.81495
vn 0.409791 0.40979 0.81495
vn -1 0 0
vn 0 1 0
vn 0 1 0
vn 1 0 0
vn 0 -1 0
vn 0 -1 0
vt 0.101702 0.017672
vt 0.224618 0.0163262
vt 0.2246 0.0249782
vt 0.101684 0.026324
vt 0.223982 0.320482
vt 0.101073 0.32184
vt 0.101087 0.313178
vt 0.224 0.311831
vt 0.223968 0.507004
vt 0.100827 0.508635
vt 0.100852 0.499962
vt 0.223937 0.498334
vt 0.516062 0.317085
vt 0.232494 0.320614
vt 0.232364 0.312039
vt 0.516203 0.308508
vt 0.224119 0.803428
vt 0.100826 0.805039
vt 0.100826 0.796361
vt 0.224119 0.794751
vt 0.524565 0.316758
vt 0.524522 0.494355
vt 0.51602 0.494246
vt 0.23245 0.497985
vt 0.516156 0.50282
vt 0.232316 0.506563
vt 0.224119 0.982064
vt 0.100826 0.983674
vt 0.592119 0.119657
vt 0.711698 0.119077
vt 0.711683 0.127562
vt 0.592104 0.128142
vt 0.711363 0.310717
vt 0.591799 0.311317
vt 0.591799 0.302812
vt 0.711378 0.302232
vt 0.711351 0.493633
vt 0.5918 0.494428
vt 0.5918 0.485945
vt 0.711352 0.48515
vt 0.890893 0.309859
vt 0.719647 0.310893
vt 0.719445 0.302499
vt 0.891105 0.301464
vt 0.71135 0.676742
vt 0.5918 0.677537
vt 0.5918 0.669054
vt 0.71135 0.668259
vt 0.890901 0.483619
vt 0.899166 0.309594
vt 0.899173 0.483774
vt 0.719644 0.484877
vt 0.891114 0.492012
vt 0.719451 0.493287
vt 0.711349 0.851368
vt 0.591799 0.852163
usemtl Default
g Default
f 1/1/1 9/2/2 11/3/3 2/4/1
f 13/5/4 4/6/5 3/7/5 14/8/6
f 16/9/7 6/10/8 5/11/8 17/12/9
f 10/13/10 12/14/11 14/15/6 11/16/3
f 19/17/12 8/18/13 7/19/13 20/20/14
f 9/21/2 19/22/12 18/23/15 10/13/10
f 17/12/9 13/5/4 12/14/11 15/24/16
f 15/24/16 18/23/15 20/25/14 16/26/7
f 9/21/2 10/13/10 11/16/3
f 12/14/11 13/5/4 14/15/6
f 15/24/16 16/26/7 17/12/9
f 18/23/15 19/22/12 20/25/14
f 14/8/17 3/7/18 2/4/18 11/3/18
f 17/12/19 5/11/20 4/6/20 13/5/21
f 20/20/22 7/19/23 6/10/23 16/9/23
f 9/27/24 1/28/25 8/18/25 19/17/26
f 18/23/27 15/24/27 12/14/27 10/13/27
f 21/29/28 29/30/29 31/31/30 22/32/28
f 33/33/31 24/34/32 23/35/32 34/36/33
f 36/37/34 26/38/35 25/39/35 37/40/36
f 30/41/37 32/42/38 34/43/33 31/44/30
f 39/45/39 28/46/40 27/47/40 40/48/41
f 38/49/42 30/41/37 29/50/29 39/51/39
f 32/42/38 35/52/43 37/40/36 33/33/31
f 35/52/43 38/49/42 40/53/41 36/54/34
f 29/50/29 30/41/37 31/44/30
f 32/42/38 33/33/31 34/43/33
f 35/52/43 36/54/34 37/40/36
f 38/49/42 39/51/39 40/53/41
f 34/36/44 23/35/44 22/32/44 31/31/44
f 37/40/45 25/39/45 24/34/45 33/33/46
f 40/48/47 27/47/47 26/38/47 36/37/47
f 29/55/48 21/56/48 28/46/48 39/45/49
f 38/49/27 35/52/27 32/42/27 30/41/27
