# OBJ written from C:\Users\Petter\Desktop\INCODE\3D production\00_SpoolCradleandEngine\Engine_01\TileBox.obj
# Units	meters

o TileBox
v -0.092225 -4.32134e-010 -0.088
v 0.092225 -4.32134e-010 -0.088
v 0.092225 -4.32134e-010 0.082
v -0.092225 -4.32134e-010 0.082
v -0.092225 0.101 -0.088
v 0.092225 0.101 -0.088
v 0.092225 0.101 0.082
v -0.092225 0.101 0.082
vn 1 0 0
vn 0 0 1
vn -1 0 0
vn 0 1 0
vt -0.322067 0.925449
vt -0.322097 0.755513
vt -0.225813 0.755513
vt -0.225783 0.925449
vt -0.497933 0.755513
vt -0.497951 0.654551
vt -0.322114 0.654551
vt -0.497903 0.925449
vt -0.594187 0.925449
vt -0.594217 0.755513
usemtl Default
g Default
f 6/1/1 7/2/1 3/3/1 2/4/1
f 7/2/2 8/5/2 4/6/2 3/7/2
f 8/5/3 5/8/3 1/9/3 4/10/3
f 5/8/4 8/5/4 7/2/4 6/1/4
