# OBJ written from C:\Users\Petter\Desktop\INCODE\3D production\KontrollPanelUI\Panel_upper\LO_Upper_panel_01.obj
# Units	meters

o Uppe_LO
v -0.231417 1.6265 0.481812
v 0.231417 1.6265 0.481812
v -0.231417 1.64196 0.481812
v 0.231417 1.64196 0.481812
v -0.231417 1.88321 0.481812
v 0.231417 1.88321 0.481812
v -0.231417 1.2915 0.481812
v 0.231417 1.2915 0.481812
v -0.224474 1.64557 0.491812
v -0.224474 1.87959 0.491812
v 0.224474 1.87959 0.491812
v 0.224474 1.64557 0.491812
v -0.224474 1.29653 0.491812
v -0.224474 1.62147 0.491812
v 0.224474 1.62147 0.491812
v 0.224474 1.29653 0.491812
v -0.242794 1.28021 0.481812
v -0.242794 1.27681 0.485206
v -0.246188 1.28021 0.485206
v 0.242794 1.28021 0.481812
v 0.242794 1.27681 0.485206
v 0.246188 1.28021 0.485206
v 0.246188 1.28021 0.756794
v 0.242794 1.28021 0.760188
v 0.242794 1.27681 0.756794
v -0.242794 1.27681 0.756794
v -0.242794 1.28021 0.760188
v -0.246188 1.28021 0.756794
v -0.242794 1.89779 0.481812
v -0.246188 1.89779 0.485206
v -0.242794 1.90119 0.485206
v 0.242794 1.89779 0.481812
v 0.242794 1.90119 0.485206
v 0.246188 1.89779 0.485206
v 0.242794 1.90119 0.756794
v 0.242794 1.89779 0.760188
v 0.246188 1.89779 0.756794
v -0.246188 1.6325 0.485206
v -0.242794 1.6325 0.481812
v 0.242794 1.6325 0.481812
v 0.246188 1.6325 0.485206
v 0.246188 1.6325 0.756794
v 0.242794 1.6325 0.760188
v -0.242794 1.6325 0.760188
v -0.246188 1.6325 0.756794
v -0.242794 1.89779 0.760188
v -0.242794 1.90119 0.756794
v -0.246188 1.89779 0.756794
vn 0 0 -1
vn 0 0.940587 -0.339554
vn 0 0.940587 -0.339553
vn 0 0.940587 -0.339554
vn 0.821425 0 -0.570316
vn 0.821425 0 -0.570316
vn 0 -0.940289 -0.340376
vn 0 -0.940289 -0.340376
vn -0.821425 0 -0.570316
vn 0 0.893351 -0.449359
vn 0 0.893351 -0.449359
vn 0 0.893351 -0.449359
vn 0.821425 0 -0.570316
vn 0.821425 0 -0.570316
vn 0 -0.893351 -0.449359
vn 0 -0.893351 -0.449359
vn 0 -0.893351 -0.449359
vn -0.821425 0 -0.570316
vn -0.821425 0 -0.570316
vn 0.460628 0.460071 -0.75905
vn -0.460629 0.46007 -0.75905
vn -0.460991 0.758271 -0.46099
vn 0.460992 0.758271 -0.46099
vn -0.759051 0.46007 -0.460627
vn -0.759051 0.46007 0.460627
vn -0.460992 0.758271 0.46099
vn 0.460991 0.758271 0.46099
vn 0.759051 0.46007 0.460627
vn 0.759051 0.46007 -0.460627
vn 0.707108 0 0.707105
vn 0.460627 -0.46008 0.759045
vn 0.759046 -0.460079 0.460626
vn 0.707108 0 0.707105
vn -0.707108 0 -0.707105
vn -0.707108 0 -0.707105
vn -0.460628 0.460071 0.75905
vn 0.460629 0.46007 0.75905
vn 0.460982 -0.758281 -0.460982
vn -0.460983 -0.758281 -0.460981
vn -0.460627 -0.46008 -0.759045
vn 0.460628 -0.46008 -0.759044
vn 0.707108 0 -0.707105
vn 0.707108 0 -0.707105
vn -0.707108 0 0.707105
vn -0.759046 -0.460079 0.460625
vn -0.460628 -0.46008 0.759044
vn -0.707108 0 0.707105
vn 0.460983 -0.758281 0.460981
vn 0.759046 -0.460079 -0.460625
vn -0.460982 -0.758281 0.460982
vn -0.759046 -0.460079 -0.460626
vn 0 0 -1
vn -1 0 0
vn 1 0 0
vn 0 -1 0
vn 0 0 1
vn 0 1 0
vt 0.954844 0.585446
vt 0.243643 0.58564
vt 0.24348 0.561693
vt 0.955212 0.56151
vt 0.257 0.598448
vt 0.941502 0.598254
vt 0.952095 0.962593
vt 0.939036 0.949797
vt 0.246835 0.963036
vt 0.259879 0.950216
vt 0.259865 0.0497317
vt 0.245901 0.0362258
vt 0.964471 0.0362229
vt 0.950207 0.0497243
vt 0.941545 0.548012
vt 0.257447 0.548183
vt 0.22941 0.98557
vt 0.969549 0.985091
vt 0.969595 0.992399
vt 0.229374 0.992878
vt 0.0428323 0.325637
vt 0.181158 0.32463
vt 0.181158 0.327089
vt 0.0428323 0.328096
vt 0.0428301 0.576903
vt 0.181156 0.575894
vt 0.181156 0.578353
vt 0.0428301 0.579363
vt 0.0794089 0.989234
vt 0.143446 0.98923
vt 0.143452 0.990083
vt 0.0794089 0.990089
vt 0.980343 0.571173
vt 0.977016 0.985223
vt 0.972828 0.57107
vt 0.0303134 0.989237
vt 0.0303142 0.902763
vt 0.0311854 0.902768
vt 0.0311847 0.989232
vt 0.228146 0.0111219
vt 0.982623 0.0111219
vt 0.98258 0.0185715
vt 0.228187 0.0185693
vt 0.225328 0.571262
vt 0.221938 0.985719
vt 0.217678 0.571367
vt 0.079409 0.901911
vt 0.143452 0.901917
vt 0.143446 0.90277
vt 0.079409 0.902766
vt 0.18117 0.897268
vt 0.0428365 0.898281
vt 0.0428363 0.895822
vt 0.18117 0.894808
vt 0.0428411 0.00672554
vt 0.18117 0.00571862
vt 0.18117 0.00817815
vt 0.042841 0.00918508
vt 0.0311757 0.990085
vt 0.0311765 0.901916
vt 0.144317 0.902765
vt 0.144317 0.989235
vt 0.990322 0.0184802
vt 0.220671 0.0184721
vt 0.181164 0.188696
vt 0.0428358 0.189702
vt 0.0428327 0.715297
vt 0.181164 0.714284
vt 0.193687 0.989235
vt 0.193687 0.902765
mtllib LO_Upper_panel_01.mtl
usemtl Default
g Default
f 3/1/1 4/2/1 2/3/1 1/4/1
f 12/5/2 4/2/3 3/1/4 9/6/2
f 9/6/5 3/1/6 5/7/5 10/8/5
f 10/8/7 5/7/8 6/9/8 11/10/7
f 11/10/9 6/9/9 4/2/9 12/5/9
f 16/11/10 8/12/11 7/13/12 13/14/10
f 13/14/13 7/13/13 1/4/14 14/15/13
f 14/15/15 1/4/16 2/3/17 15/16/15
f 15/16/18 2/3/18 8/12/19 16/11/18
f 9/6/1 10/8/1 11/10/1 12/5/1
f 13/14/1 14/15/1 15/16/1 16/11/1
f 32/17/20 29/18/21 31/19/22 33/20/23
f 30/21/24 48/22/25 47/23/26 31/24/22
f 33/25/23 35/26/27 37/27/28 34/28/29
f 43/29/30 24/30/31 23/31/32 42/32/33
f 38/33/34 30/34/24 29/18/21 39/35/35
f 35/36/27 47/37/26 46/38/36 36/39/37
f 21/40/38 18/41/39 17/42/40 20/43/41
f 40/44/42 32/17/20 34/45/29 41/46/43
f 45/47/44 28/48/45 27/49/46 44/50/47
f 25/51/48 21/52/38 22/53/49 23/54/32
f 18/55/39 26/56/50 28/57/45 19/58/51
f 42/32/33 37/59/28 36/39/37 43/29/30
f 48/60/25 45/47/44 44/50/47 46/38/36
f 24/30/31 27/49/46 26/61/50 25/62/48
f 17/42/40 18/41/39 19/63/51
f 21/40/38 20/43/41 22/64/49
f 23/31/32 24/30/31 25/62/48
f 26/61/50 27/49/46 28/48/45
f 29/18/21 30/34/24 31/19/22
f 33/20/23 34/45/29 32/17/20
f 35/36/27 36/39/37 37/59/28
f 46/38/36 47/37/26 48/60/25
f 29/18/52 32/17/52 6/9/1 5/7/1
f 45/65/53 38/66/53 19/58/53 28/57/53
f 41/67/54 42/68/54 23/54/54 22/53/54
f 7/13/1 8/12/1 20/43/52 17/42/1
f 6/9/1 32/17/52 40/44/52 4/2/1
f 34/28/54 37/27/54 42/68/54 41/67/54
f 29/18/52 5/7/1 3/1/1 39/35/52
f 21/69/55 25/62/55 26/61/55 18/70/55
f 43/29/56 44/50/56 27/49/56 24/30/56
f 48/22/53 30/21/53 38/66/53 45/65/53
f 36/39/56 46/38/56 44/50/56 43/29/56
f 35/26/57 33/25/57 31/24/57 47/23/57
f 39/35/35 17/42/40 19/63/51 38/33/34
f 39/35/52 1/4/1 7/13/1 17/42/1
f 39/35/52 3/1/1 1/4/1
f 41/46/43 22/64/49 20/43/41 40/44/42
f 40/44/52 2/3/1 4/2/1
f 2/3/1 40/44/52 20/43/52 8/12/1
