# OBJ written from C:\Users\Petter\Desktop\INCODE\3D production\KontrollPanelUI\3D\02_Modo\LO_panel_01.obj
# Units	meters

o Base
v -0.264 0 -8.92619e-014
v 0.264 0 -8.92619e-014
v 0.264 0 0.46
v -0.264 0 0.46
v -0.264 0.860049 -8.92619e-014
v 0.264 0.860049 -8.92619e-014
v 0.264 0.860049 0.46
v -0.264 0.860049 0.46
v -0.297 0.860049 -8.92619e-014
v -0.297 0.860049 0.549
v 0.297 0.860049 -8.92619e-014
v 0.297 0.860049 0.549
v -0.297 1.06327 -8.92619e-014
v -0.287347 1.07098 0.0094555
v -0.297 0.949364 0.549
v -0.286315 0.962201 0.538534
v 0.297 1.06327 -8.92619e-014
v 0.287347 1.07098 0.0094555
v 0.297 0.949364 0.549
v 0.286315 0.962201 0.538534
vn 0 -1 0
vn 1 0 0
vn -1 0 0
vn -0.69965 0.699582 0.145175
vn -0.69965 0.699582 0.145175
vn -0.69965 0.699582 0.145175
vn 0 0.25975 0.965676
vn 0 0.259751 0.965676
vn 0 0.6319 0.77505
vn 0.699625 0.699606 0.145178
vn 0.699625 0.699606 0.145178
vn 0 0.979511 0.201388
vn 0 0 1
vn 0 0 -1
vn 0 0.775014 -0.631944
vn 0 0.775014 -0.631944
vt 0.662447 0.738563
vt 0.693588 0.738563
vt 0.693553 0.765437
vt 0.662412 0.765437
vt 0.263497 0.0147625
vt 0.459507 0.0147625
vt 0.459507 0.381238
vt 0.263497 0.381237
vt 0.684493 0.0147627
vt 0.880503 0.0147627
vt 0.880503 0.381237
vt 0.684493 0.381238
vt 0.0274508 0.403085
vt 0.0252763 0.981798
vt 0.0129605 0.992705
vt 0.0136324 0.387296
vt 0.655039 0.387295
vt 0.641158 0.403083
vt 0.641008 0.981798
vt 0.65328 0.992705
vt 0.232609 0.378851
vt 0.232609 0.013149
vt 0.175819 0.013149
vt 0.103391 0.378851
vt 0.164026 0.00902685
vt 0.0846922 0.377212
vt 0.0275074 0.378303
vt 0.0339098 0.0115087
vt 0.985115 0.696987
vt 0.96788 0.696987
vt 0.96788 0.456742
vt 0.985115 0.41026
vt 0.674885 0.696987
vt 0.674885 0.41026
vt 0.69212 0.456742
vt 0.69212 0.696987
vt 0.926375 0.402644
vt 0.926375 0.00935596
vt 0.977625 0.00935596
vt 0.977625 0.402644
vt 0.683281 0.893381
vt 0.699498 0.893381
vt 0.683661 0.99374
vt 0.958973 0.893381
vt 0.697887 0.468656
vt 0.957362 0.468656
vt 0.97519 0.893381
vt 0.975571 0.99374
mtllib LO_panel_01.mtl
usemtl Default
g Default
f 1/1/1 2/2/1 3/3/1 4/4/1
f 6/5/2 7/6/2 3/7/2 2/8/2
f 8/9/3 5/10/3 1/11/3 4/12/3
f 16/13/4 14/14/4 13/15/5 15/16/6
f 15/16/7 19/17/8 20/18/9 16/13/9
f 18/19/10 20/18/10 19/17/11 17/20/10
f 9/21/3 10/22/3 15/23/3 13/24/3
f 17/25/2 19/26/2 12/27/2 11/28/2
f 16/13/12 20/18/12 18/19/12 14/14/12
f 9/29/1 5/30/1 8/31/1 10/32/1
f 7/6/13 8/9/13 4/12/13 3/7/13
f 11/33/1 12/34/1 7/35/1 6/36/1
f 12/34/1 10/32/1 8/31/1 7/35/1
f 10/37/13 12/38/13 19/39/8 15/40/7
f 11/41/14 6/42/14 17/43/14
f 5/44/14 6/42/14 2/45/14 1/46/14
f 17/20/15 13/15/16 14/14/16 18/19/16
f 5/44/14 9/47/14 13/48/14
f 13/48/14 17/43/14 6/42/14 5/44/14
